<svg width="97" height="54" viewBox="0 0 97 54" fill="none" xmlns="http://www.w3.org/2000/svg">
<rect y="12" width="40" height="31" rx="15.5" fill="#2C8E4E"/>
<path d="M44.5378 35V24.0909H47.0307V25.9091H47.1444C47.3432 25.2794 47.6841 24.794 48.1671 24.4531C48.6548 24.1075 49.2111 23.9347 49.8361 23.9347C49.9782 23.9347 50.1368 23.9418 50.312 23.956C50.4919 23.9654 50.641 23.982 50.7594 24.0057V26.3707C50.6505 26.3329 50.4777 26.2997 50.2409 26.2713C50.0089 26.2382 49.784 26.2216 49.5662 26.2216C49.0975 26.2216 48.6761 26.3234 48.302 26.527C47.9327 26.7259 47.6415 27.0028 47.4284 27.358C47.2154 27.7131 47.1088 28.1226 47.1088 28.5866V35H44.5378ZM54.9114 35.2202C54.2201 35.2202 53.5975 35.0971 53.0435 34.8509C52.4943 34.5999 52.0587 34.2306 51.7367 33.7429C51.4194 33.2552 51.2608 32.6539 51.2608 31.9389C51.2608 31.3234 51.3745 30.8144 51.6017 30.4119C51.829 30.0095 52.1391 29.6875 52.5321 29.446C52.9251 29.2045 53.3678 29.0223 53.8603 28.8991C54.3574 28.7713 54.8712 28.679 55.4015 28.6222C56.0407 28.5559 56.5591 28.4967 56.9569 28.4446C57.3546 28.3878 57.6434 28.3026 57.8233 28.1889C58.008 28.0705 58.1003 27.8883 58.1003 27.642V27.5994C58.1003 27.0644 57.9417 26.6501 57.6245 26.3565C57.3072 26.063 56.8503 25.9162 56.2537 25.9162C55.624 25.9162 55.1245 26.0535 54.7551 26.3281C54.3906 26.6027 54.1444 26.9271 54.0165 27.3011L51.6159 26.9602C51.8053 26.2973 52.1178 25.7434 52.5534 25.2983C52.9891 24.8485 53.5217 24.5123 54.1515 24.2898C54.7812 24.0625 55.4772 23.9489 56.2395 23.9489C56.7651 23.9489 57.2883 24.0104 57.8091 24.1335C58.33 24.2566 58.8058 24.4602 59.2367 24.7443C59.6676 25.0237 60.0132 25.4048 60.2736 25.8878C60.5388 26.3707 60.6713 26.9744 60.6713 27.6989V35H58.1998V33.5014H58.1145C57.9583 33.8045 57.7381 34.0885 57.454 34.3537C57.1747 34.6141 56.8219 34.8248 56.3958 34.9858C55.9744 35.142 55.4796 35.2202 54.9114 35.2202ZM55.579 33.331C56.0951 33.331 56.5426 33.2292 56.9213 33.0256C57.3001 32.8172 57.5913 32.5426 57.7949 32.2017C58.0033 31.8608 58.1074 31.4891 58.1074 31.0866V29.8011C58.0269 29.8674 57.8896 29.929 57.6955 29.9858C57.5061 30.0426 57.293 30.0923 57.0563 30.1349C56.8195 30.1776 56.5852 30.2154 56.3532 30.2486C56.1212 30.2817 55.9199 30.3101 55.7495 30.3338C55.3659 30.3859 55.0227 30.4711 54.7196 30.5895C54.4166 30.7079 54.1775 30.8736 54.0023 31.0866C53.8271 31.295 53.7395 31.5649 53.7395 31.8963C53.7395 32.3698 53.9123 32.7273 54.258 32.9688C54.6036 33.2102 55.044 33.331 55.579 33.331ZM62.8702 35V20.4545H65.4412V25.8949H65.5478C65.6803 25.6297 65.8674 25.348 66.1088 25.0497C66.3503 24.7467 66.677 24.4886 67.089 24.2756C67.5009 24.0578 68.0265 23.9489 68.6657 23.9489C69.5085 23.9489 70.2684 24.1643 70.9455 24.5952C71.6273 25.0213 72.1671 25.6534 72.5648 26.4915C72.9673 27.3248 73.1685 28.3475 73.1685 29.5597C73.1685 30.7576 72.972 31.7756 72.579 32.6136C72.186 33.4517 71.651 34.0909 70.9739 34.5312C70.2968 34.9716 69.5298 35.1918 68.6728 35.1918C68.0478 35.1918 67.5293 35.0876 67.1174 34.8793C66.7054 34.6709 66.374 34.42 66.123 34.1264C65.8768 33.8281 65.6851 33.5464 65.5478 33.2812H65.3986V35H62.8702ZM65.3915 29.5455C65.3915 30.2509 65.4909 30.8688 65.6898 31.3991C65.8934 31.9295 66.1846 32.3437 66.5634 32.642C66.9469 32.9356 67.4109 33.0824 67.9554 33.0824C68.5236 33.0824 68.9995 32.9309 69.383 32.6278C69.7665 32.3201 70.0553 31.901 70.2495 31.3707C70.4483 30.8357 70.5478 30.2273 70.5478 29.5455C70.5478 28.8684 70.4507 28.267 70.2566 27.7415C70.0624 27.2159 69.7736 26.804 69.3901 26.5057C69.0066 26.2074 68.5284 26.0582 67.9554 26.0582C67.4062 26.0582 66.9398 26.2027 66.5563 26.4915C66.1728 26.7803 65.8816 27.1851 65.6827 27.706C65.4886 28.2268 65.3915 28.84 65.3915 29.5455ZM74.9679 35V20.4545H77.5389V25.8949H77.6454C77.778 25.6297 77.965 25.348 78.2065 25.0497C78.448 24.7467 78.7747 24.4886 79.1866 24.2756C79.5985 24.0578 80.1241 23.9489 80.7633 23.9489C81.6061 23.9489 82.3661 24.1643 83.0431 24.5952C83.725 25.0213 84.2647 25.6534 84.6625 26.4915C85.0649 27.3248 85.2662 28.3475 85.2662 29.5597C85.2662 30.7576 85.0697 31.7756 84.6767 32.6136C84.2837 33.4517 83.7486 34.0909 83.0716 34.5312C82.3945 34.9716 81.6274 35.1918 80.7704 35.1918C80.1454 35.1918 79.627 35.0876 79.215 34.8793C78.8031 34.6709 78.4717 34.42 78.2207 34.1264C77.9745 33.8281 77.7827 33.5464 77.6454 33.2812H77.4963V35H74.9679ZM77.4892 29.5455C77.4892 30.2509 77.5886 30.8688 77.7875 31.3991C77.9911 31.9295 78.2823 32.3437 78.661 32.642C79.0446 32.9356 79.5086 33.0824 80.0531 33.0824C80.6213 33.0824 81.0971 32.9309 81.4806 32.6278C81.8642 32.3201 82.153 31.901 82.3471 31.3707C82.546 30.8357 82.6454 30.2273 82.6454 29.5455C82.6454 28.8684 82.5484 28.267 82.3542 27.7415C82.1601 27.2159 81.8713 26.804 81.4877 26.5057C81.1042 26.2074 80.626 26.0582 80.0531 26.0582C79.5038 26.0582 79.0375 26.2027 78.6539 26.4915C78.2704 26.7803 77.9792 27.1851 77.7804 27.706C77.5862 28.2268 77.4892 28.84 77.4892 29.5455ZM88.1788 39.0909C87.8284 39.0909 87.5041 39.0625 87.2058 39.0057C86.9122 38.9536 86.6779 38.892 86.5027 38.821L87.0993 36.8182C87.4733 36.9271 87.8071 36.9792 88.1007 36.9744C88.3942 36.9697 88.6523 36.8774 88.8748 36.6974C89.1021 36.5223 89.2939 36.2287 89.4501 35.8168L89.6703 35.2273L85.7143 24.0909H88.4416L90.9558 32.3295H91.0694L93.5907 24.0909H96.3251L91.9572 36.321C91.7536 36.8987 91.4837 37.3935 91.1475 37.8054C90.8114 38.2221 90.3994 38.5393 89.9118 38.7571C89.4288 38.9796 88.8511 39.0909 88.1788 39.0909Z" fill="#222222"/>
<path d="M24.3801 25.0994C24.2618 24.7159 24.0984 24.3726 23.8901 24.0696C23.6865 23.7618 23.4403 23.4991 23.1515 23.2812C22.8674 23.0634 22.5407 22.9001 22.1713 22.7912C21.802 22.6776 21.3996 22.6207 20.964 22.6207C20.1827 22.6207 19.4867 22.8172 18.8759 23.2102C18.2651 23.6032 17.7845 24.1809 17.4341 24.9432C17.0885 25.7008 16.9157 26.6241 16.9157 27.7131C16.9157 28.8116 17.0885 29.742 17.4341 30.5043C17.7798 31.2666 18.2604 31.8466 18.8759 32.2443C19.4914 32.6373 20.2064 32.8338 21.0208 32.8338C21.7594 32.8338 22.3986 32.6918 22.9384 32.4077C23.4829 32.1236 23.9019 31.7211 24.1955 31.2003C24.4891 30.6747 24.6358 30.0592 24.6358 29.3537L25.2324 29.446H21.2836V27.3864H27.1855V29.1335C27.1855 30.3788 26.9204 31.456 26.3901 32.3651C25.8598 33.2741 25.1306 33.9749 24.2026 34.4673C23.2746 34.955 22.2092 35.1989 21.0066 35.1989C19.6666 35.1989 18.49 34.8982 17.4767 34.2969C16.4682 33.6908 15.6799 32.8314 15.1117 31.7188C14.5482 30.6013 14.2665 29.2756 14.2665 27.7415C14.2665 26.5672 14.4322 25.5185 14.7637 24.5952C15.0998 23.6719 15.5686 22.8883 16.1699 22.2443C16.7712 21.5956 17.4767 21.1032 18.2864 20.767C19.0961 20.4261 19.9767 20.2557 20.9284 20.2557C21.7334 20.2557 22.4838 20.3741 23.1799 20.6108C23.8759 20.8428 24.4938 21.1742 25.0336 21.6051C25.5781 22.036 26.0255 22.5473 26.3759 23.1392C26.7263 23.7311 26.9559 24.3845 27.0648 25.0994H24.3801Z" fill="white"/>
<circle cx="34" cy="6" r="6" fill="#2C8E4E"/>
<circle cx="34" cy="48" r="6" fill="#2C8E4E"/>
</svg>
