<svg width="414" height="896" viewBox="0 0 414 896" fill="none" xmlns="http://www.w3.org/2000/svg">
<rect width="414" height="896" fill="white"/>
<path d="M111.741 468.091C111.656 467.371 111.31 466.812 110.704 466.415C110.098 466.017 109.355 465.818 108.474 465.818C107.83 465.818 107.267 465.922 106.784 466.131C106.306 466.339 105.932 466.625 105.662 466.99C105.397 467.355 105.264 467.769 105.264 468.233C105.264 468.621 105.356 468.955 105.541 469.234C105.73 469.509 105.972 469.739 106.265 469.923C106.559 470.103 106.867 470.252 107.189 470.371C107.511 470.484 107.807 470.577 108.077 470.648L109.554 471.045C109.933 471.145 110.354 471.282 110.818 471.457C111.287 471.633 111.734 471.872 112.16 472.175C112.591 472.473 112.946 472.857 113.226 473.325C113.505 473.794 113.645 474.369 113.645 475.051C113.645 475.837 113.439 476.547 113.027 477.182C112.62 477.816 112.023 478.321 111.237 478.695C110.456 479.069 109.506 479.256 108.389 479.256C107.347 479.256 106.445 479.088 105.683 478.751C104.925 478.415 104.329 477.946 103.893 477.345C103.462 476.744 103.219 476.045 103.162 475.25H104.98C105.027 475.799 105.212 476.254 105.534 476.614C105.861 476.969 106.273 477.234 106.77 477.409C107.272 477.58 107.811 477.665 108.389 477.665C109.061 477.665 109.665 477.556 110.2 477.338C110.735 477.116 111.159 476.808 111.471 476.415C111.784 476.017 111.94 475.553 111.94 475.023C111.94 474.54 111.805 474.147 111.535 473.844C111.265 473.541 110.91 473.295 110.47 473.105C110.03 472.916 109.554 472.75 109.042 472.608L107.253 472.097C106.116 471.77 105.217 471.304 104.554 470.697C103.891 470.091 103.559 469.298 103.559 468.318C103.559 467.504 103.78 466.794 104.22 466.188C104.665 465.577 105.262 465.103 106.01 464.767C106.763 464.426 107.603 464.256 108.531 464.256C109.469 464.256 110.302 464.424 111.031 464.76C111.76 465.091 112.338 465.546 112.764 466.124C113.195 466.701 113.422 467.357 113.446 468.091H111.741ZM115.813 479V468.091H117.49V479H115.813ZM116.666 466.273C116.339 466.273 116.057 466.161 115.82 465.939C115.588 465.716 115.472 465.449 115.472 465.136C115.472 464.824 115.588 464.556 115.82 464.334C116.057 464.111 116.339 464 116.666 464C116.992 464 117.272 464.111 117.504 464.334C117.74 464.556 117.859 464.824 117.859 465.136C117.859 465.449 117.74 465.716 117.504 465.939C117.272 466.161 116.992 466.273 116.666 466.273ZM120.059 479V468.091H121.679V469.795H121.821C122.048 469.213 122.415 468.761 122.922 468.439C123.428 468.112 124.037 467.949 124.747 467.949C125.467 467.949 126.066 468.112 126.544 468.439C127.027 468.761 127.403 469.213 127.673 469.795H127.787C128.066 469.232 128.485 468.785 129.044 468.453C129.603 468.117 130.273 467.949 131.054 467.949C132.029 467.949 132.827 468.254 133.447 468.865C134.068 469.471 134.378 470.416 134.378 471.699V479H132.702V471.699C132.702 470.894 132.481 470.319 132.041 469.973C131.601 469.627 131.082 469.455 130.486 469.455C129.719 469.455 129.124 469.687 128.703 470.151C128.282 470.61 128.071 471.192 128.071 471.898V479H126.366V471.528C126.366 470.908 126.165 470.409 125.763 470.03C125.36 469.646 124.842 469.455 124.207 469.455C123.772 469.455 123.364 469.571 122.986 469.803C122.612 470.035 122.309 470.357 122.077 470.768C121.849 471.176 121.736 471.647 121.736 472.182V479H120.059ZM136.942 483.091V468.091H138.562V469.824H138.76C138.884 469.634 139.054 469.393 139.272 469.099C139.494 468.801 139.812 468.536 140.224 468.304C140.64 468.067 141.204 467.949 141.914 467.949C142.832 467.949 143.642 468.179 144.343 468.638C145.044 469.097 145.59 469.748 145.983 470.591C146.376 471.434 146.573 472.428 146.573 473.574C146.573 474.729 146.376 475.731 145.983 476.578C145.59 477.421 145.046 478.074 144.35 478.538C143.654 478.998 142.851 479.227 141.942 479.227C141.242 479.227 140.68 479.111 140.259 478.879C139.838 478.643 139.513 478.375 139.286 478.077C139.059 477.774 138.884 477.523 138.76 477.324H138.618V483.091H136.942ZM138.59 473.545C138.59 474.369 138.711 475.096 138.952 475.726C139.194 476.351 139.546 476.841 140.01 477.196C140.474 477.546 141.043 477.722 141.715 477.722C142.416 477.722 143.001 477.537 143.469 477.168C143.943 476.794 144.298 476.292 144.535 475.662C144.776 475.027 144.897 474.322 144.897 473.545C144.897 472.778 144.778 472.087 144.542 471.472C144.31 470.851 143.957 470.361 143.483 470.001C143.015 469.637 142.425 469.455 141.715 469.455C141.033 469.455 140.46 469.627 139.996 469.973C139.532 470.314 139.182 470.792 138.945 471.408C138.708 472.018 138.59 472.731 138.59 473.545ZM150.306 464.455V479H148.63V464.455H150.306ZM157.734 468.091V469.511H151.853V468.091H157.734ZM153.615 479V466.585C153.615 465.96 153.761 465.439 154.055 465.023C154.348 464.606 154.73 464.294 155.198 464.085C155.667 463.877 156.162 463.773 156.683 463.773C157.095 463.773 157.431 463.806 157.691 463.872C157.952 463.938 158.146 464 158.274 464.057L157.791 465.506C157.705 465.477 157.587 465.442 157.436 465.399C157.289 465.357 157.095 465.335 156.853 465.335C156.299 465.335 155.899 465.475 155.653 465.754C155.411 466.034 155.291 466.443 155.291 466.983V479H153.615ZM160.662 483.091C160.378 483.091 160.125 483.067 159.903 483.02C159.68 482.977 159.526 482.935 159.441 482.892L159.867 481.415C160.274 481.519 160.634 481.557 160.947 481.528C161.259 481.5 161.536 481.36 161.778 481.109C162.024 480.863 162.249 480.463 162.452 479.909L162.765 479.057L158.731 468.091H160.549L163.56 476.784H163.674L166.685 468.091H168.503L163.873 480.591C163.664 481.154 163.406 481.621 163.099 481.99C162.791 482.364 162.433 482.641 162.026 482.821C161.624 483.001 161.169 483.091 160.662 483.091ZM170.216 479V468.091H171.892V479H170.216ZM171.068 466.273C170.741 466.273 170.46 466.161 170.223 465.939C169.991 465.716 169.875 465.449 169.875 465.136C169.875 464.824 169.991 464.556 170.223 464.334C170.46 464.111 170.741 464 171.068 464C171.395 464 171.674 464.111 171.906 464.334C172.143 464.556 172.261 464.824 172.261 465.136C172.261 465.449 172.143 465.716 171.906 465.939C171.674 466.161 171.395 466.273 171.068 466.273ZM176.138 472.438V479H174.462V468.091H176.081V469.795H176.223C176.479 469.241 176.867 468.796 177.388 468.46C177.909 468.119 178.581 467.949 179.405 467.949C180.144 467.949 180.79 468.1 181.344 468.403C181.898 468.702 182.329 469.156 182.637 469.767C182.944 470.373 183.098 471.14 183.098 472.068V479H181.422V472.182C181.422 471.325 181.2 470.657 180.754 470.179C180.309 469.696 179.699 469.455 178.922 469.455C178.387 469.455 177.909 469.571 177.487 469.803C177.071 470.035 176.742 470.373 176.5 470.818C176.259 471.263 176.138 471.803 176.138 472.438ZM190.064 483.318C189.255 483.318 188.559 483.214 187.976 483.006C187.394 482.802 186.909 482.532 186.52 482.196C186.137 481.865 185.831 481.509 185.604 481.131L186.939 480.193C187.091 480.392 187.283 480.619 187.515 480.875C187.747 481.135 188.064 481.36 188.466 481.55C188.874 481.744 189.406 481.841 190.064 481.841C190.945 481.841 191.672 481.628 192.245 481.202C192.818 480.776 193.104 480.108 193.104 479.199V476.983H192.962C192.839 477.182 192.664 477.428 192.437 477.722C192.214 478.01 191.892 478.268 191.471 478.496C191.054 478.718 190.491 478.83 189.78 478.83C188.9 478.83 188.109 478.621 187.408 478.205C186.712 477.788 186.161 477.182 185.753 476.386C185.351 475.591 185.15 474.625 185.15 473.489C185.15 472.371 185.346 471.398 185.739 470.57C186.132 469.736 186.679 469.092 187.38 468.638C188.081 468.179 188.89 467.949 189.809 467.949C190.519 467.949 191.082 468.067 191.499 468.304C191.921 468.536 192.242 468.801 192.465 469.099C192.692 469.393 192.867 469.634 192.991 469.824H193.161V468.091H194.78V479.312C194.78 480.25 194.567 481.012 194.141 481.599C193.72 482.191 193.152 482.625 192.437 482.899C191.726 483.179 190.936 483.318 190.064 483.318ZM190.008 477.324C190.68 477.324 191.248 477.17 191.712 476.862C192.176 476.554 192.529 476.112 192.77 475.534C193.012 474.956 193.133 474.265 193.133 473.46C193.133 472.674 193.014 471.981 192.778 471.379C192.541 470.778 192.19 470.307 191.726 469.966C191.262 469.625 190.689 469.455 190.008 469.455C189.297 469.455 188.706 469.634 188.232 469.994C187.763 470.354 187.411 470.837 187.174 471.443C186.942 472.049 186.826 472.722 186.826 473.46C186.826 474.218 186.944 474.888 187.181 475.47C187.422 476.048 187.778 476.502 188.246 476.834C188.72 477.161 189.307 477.324 190.008 477.324ZM210.655 468.091C210.57 467.371 210.224 466.812 209.618 466.415C209.012 466.017 208.269 465.818 207.388 465.818C206.744 465.818 206.181 465.922 205.698 466.131C205.22 466.339 204.846 466.625 204.576 466.99C204.311 467.355 204.178 467.769 204.178 468.233C204.178 468.621 204.27 468.955 204.455 469.234C204.644 469.509 204.886 469.739 205.18 469.923C205.473 470.103 205.781 470.252 206.103 470.371C206.425 470.484 206.721 470.577 206.991 470.648L208.468 471.045C208.847 471.145 209.268 471.282 209.732 471.457C210.201 471.633 210.648 471.872 211.074 472.175C211.505 472.473 211.86 472.857 212.14 473.325C212.419 473.794 212.559 474.369 212.559 475.051C212.559 475.837 212.353 476.547 211.941 477.182C211.534 477.816 210.937 478.321 210.151 478.695C209.37 479.069 208.421 479.256 207.303 479.256C206.261 479.256 205.359 479.088 204.597 478.751C203.84 478.415 203.243 477.946 202.807 477.345C202.376 476.744 202.133 476.045 202.076 475.25H203.894C203.941 475.799 204.126 476.254 204.448 476.614C204.775 476.969 205.187 477.234 205.684 477.409C206.186 477.58 206.725 477.665 207.303 477.665C207.975 477.665 208.579 477.556 209.114 477.338C209.649 477.116 210.073 476.808 210.385 476.415C210.698 476.017 210.854 475.553 210.854 475.023C210.854 474.54 210.719 474.147 210.449 473.844C210.18 473.541 209.824 473.295 209.384 473.105C208.944 472.916 208.468 472.75 207.956 472.608L206.167 472.097C205.03 471.77 204.131 471.304 203.468 470.697C202.805 470.091 202.474 469.298 202.474 468.318C202.474 467.504 202.694 466.794 203.134 466.188C203.579 465.577 204.176 465.103 204.924 464.767C205.677 464.426 206.517 464.256 207.445 464.256C208.383 464.256 209.216 464.424 209.945 464.76C210.674 465.091 211.252 465.546 211.678 466.124C212.109 466.701 212.336 467.357 212.36 468.091H210.655ZM216.404 472.438V479H214.727V464.455H216.404V469.795H216.546C216.801 469.232 217.185 468.785 217.696 468.453C218.212 468.117 218.899 467.949 219.756 467.949C220.499 467.949 221.15 468.098 221.709 468.396C222.268 468.69 222.701 469.142 223.009 469.753C223.321 470.359 223.477 471.131 223.477 472.068V479H221.801V472.182C221.801 471.315 221.576 470.645 221.127 470.172C220.682 469.694 220.064 469.455 219.273 469.455C218.724 469.455 218.231 469.571 217.796 469.803C217.365 470.035 217.024 470.373 216.773 470.818C216.527 471.263 216.404 471.803 216.404 472.438ZM230.476 479.227C229.491 479.227 228.627 478.993 227.883 478.524C227.145 478.055 226.567 477.4 226.15 476.557C225.738 475.714 225.532 474.729 225.532 473.602C225.532 472.466 225.738 471.474 226.15 470.626C226.567 469.779 227.145 469.121 227.883 468.652C228.627 468.183 229.491 467.949 230.476 467.949C231.461 467.949 232.322 468.183 233.061 468.652C233.804 469.121 234.382 469.779 234.794 470.626C235.211 471.474 235.419 472.466 235.419 473.602C235.419 474.729 235.211 475.714 234.794 476.557C234.382 477.4 233.804 478.055 233.061 478.524C232.322 478.993 231.461 479.227 230.476 479.227ZM230.476 477.722C231.224 477.722 231.839 477.53 232.322 477.146C232.805 476.763 233.163 476.259 233.395 475.634C233.627 475.009 233.743 474.331 233.743 473.602C233.743 472.873 233.627 472.194 233.395 471.564C233.163 470.934 232.805 470.425 232.322 470.037C231.839 469.649 231.224 469.455 230.476 469.455C229.728 469.455 229.112 469.649 228.629 470.037C228.146 470.425 227.789 470.934 227.557 471.564C227.325 472.194 227.209 472.873 227.209 473.602C227.209 474.331 227.325 475.009 227.557 475.634C227.789 476.259 228.146 476.763 228.629 477.146C229.112 477.53 229.728 477.722 230.476 477.722ZM237.477 483.091V468.091H239.097V469.824H239.296C239.419 469.634 239.589 469.393 239.807 469.099C240.03 468.801 240.347 468.536 240.759 468.304C241.175 468.067 241.739 467.949 242.449 467.949C243.368 467.949 244.177 468.179 244.878 468.638C245.579 469.097 246.126 469.748 246.519 470.591C246.912 471.434 247.108 472.428 247.108 473.574C247.108 474.729 246.912 475.731 246.519 476.578C246.126 477.421 245.581 478.074 244.885 478.538C244.189 478.998 243.387 479.227 242.477 479.227C241.777 479.227 241.216 479.111 240.794 478.879C240.373 478.643 240.048 478.375 239.821 478.077C239.594 477.774 239.419 477.523 239.296 477.324H239.154V483.091H237.477ZM239.125 473.545C239.125 474.369 239.246 475.096 239.487 475.726C239.729 476.351 240.082 476.841 240.546 477.196C241.01 477.546 241.578 477.722 242.25 477.722C242.951 477.722 243.536 477.537 244.004 477.168C244.478 476.794 244.833 476.292 245.07 475.662C245.311 475.027 245.432 474.322 245.432 473.545C245.432 472.778 245.314 472.087 245.077 471.472C244.845 470.851 244.492 470.361 244.019 470.001C243.55 469.637 242.96 469.455 242.25 469.455C241.568 469.455 240.995 469.627 240.531 469.973C240.067 470.314 239.717 470.792 239.48 471.408C239.244 472.018 239.125 472.731 239.125 473.545ZM249.165 483.091V468.091H250.784V469.824H250.983C251.106 469.634 251.277 469.393 251.494 469.099C251.717 468.801 252.034 468.536 252.446 468.304C252.863 468.067 253.426 467.949 254.137 467.949C255.055 467.949 255.865 468.179 256.566 468.638C257.266 469.097 257.813 469.748 258.206 470.591C258.599 471.434 258.796 472.428 258.796 473.574C258.796 474.729 258.599 475.731 258.206 476.578C257.813 477.421 257.269 478.074 256.573 478.538C255.877 478.998 255.074 479.227 254.165 479.227C253.464 479.227 252.903 479.111 252.482 478.879C252.06 478.643 251.736 478.375 251.509 478.077C251.281 477.774 251.106 477.523 250.983 477.324H250.841V483.091H249.165ZM250.813 473.545C250.813 474.369 250.933 475.096 251.175 475.726C251.416 476.351 251.769 476.841 252.233 477.196C252.697 477.546 253.265 477.722 253.938 477.722C254.638 477.722 255.223 477.537 255.692 477.168C256.165 476.794 256.521 476.292 256.757 475.662C256.999 475.027 257.119 474.322 257.119 473.545C257.119 472.778 257.001 472.087 256.764 471.472C256.532 470.851 256.18 470.361 255.706 470.001C255.237 469.637 254.648 469.455 253.938 469.455C253.256 469.455 252.683 469.627 252.219 469.973C251.755 470.314 251.405 470.792 251.168 471.408C250.931 472.018 250.813 472.731 250.813 473.545ZM260.852 479V468.091H262.529V479H260.852ZM261.705 466.273C261.378 466.273 261.096 466.161 260.86 465.939C260.628 465.716 260.512 465.449 260.512 465.136C260.512 464.824 260.628 464.556 260.86 464.334C261.096 464.111 261.378 464 261.705 464C262.031 464 262.311 464.111 262.543 464.334C262.78 464.556 262.898 464.824 262.898 465.136C262.898 465.449 262.78 465.716 262.543 465.939C262.311 466.161 262.031 466.273 261.705 466.273ZM266.775 472.438V479H265.099V468.091H266.718V469.795H266.86C267.116 469.241 267.504 468.796 268.025 468.46C268.546 468.119 269.218 467.949 270.042 467.949C270.78 467.949 271.427 468.1 271.981 468.403C272.535 468.702 272.965 469.156 273.273 469.767C273.581 470.373 273.735 471.14 273.735 472.068V479H272.059V472.182C272.059 471.325 271.836 470.657 271.391 470.179C270.946 469.696 270.335 469.455 269.559 469.455C269.024 469.455 268.546 469.571 268.124 469.803C267.707 470.035 267.378 470.373 267.137 470.818C266.895 471.263 266.775 471.803 266.775 472.438ZM280.701 483.318C279.892 483.318 279.195 483.214 278.613 483.006C278.031 482.802 277.545 482.532 277.157 482.196C276.774 481.865 276.468 481.509 276.241 481.131L277.576 480.193C277.728 480.392 277.919 480.619 278.151 480.875C278.383 481.135 278.701 481.36 279.103 481.55C279.51 481.744 280.043 481.841 280.701 481.841C281.582 481.841 282.309 481.628 282.882 481.202C283.454 480.776 283.741 480.108 283.741 479.199V476.983H283.599C283.476 477.182 283.301 477.428 283.073 477.722C282.851 478.01 282.529 478.268 282.107 478.496C281.691 478.718 281.127 478.83 280.417 478.83C279.536 478.83 278.746 478.621 278.045 478.205C277.349 477.788 276.797 477.182 276.39 476.386C275.988 475.591 275.786 474.625 275.786 473.489C275.786 472.371 275.983 471.398 276.376 470.57C276.769 469.736 277.316 469.092 278.017 468.638C278.717 468.179 279.527 467.949 280.445 467.949C281.156 467.949 281.719 468.067 282.136 468.304C282.557 468.536 282.879 468.801 283.102 469.099C283.329 469.393 283.504 469.634 283.627 469.824H283.798V468.091H285.417V479.312C285.417 480.25 285.204 481.012 284.778 481.599C284.356 482.191 283.788 482.625 283.073 482.899C282.363 483.179 281.572 483.318 280.701 483.318ZM280.644 477.324C281.317 477.324 281.885 477.17 282.349 476.862C282.813 476.554 283.166 476.112 283.407 475.534C283.649 474.956 283.769 474.265 283.769 473.46C283.769 472.674 283.651 471.981 283.414 471.379C283.177 470.778 282.827 470.307 282.363 469.966C281.899 469.625 281.326 469.455 280.644 469.455C279.934 469.455 279.342 469.634 278.869 469.994C278.4 470.354 278.047 470.837 277.811 471.443C277.579 472.049 277.463 472.722 277.463 473.46C277.463 474.218 277.581 474.888 277.818 475.47C278.059 476.048 278.414 476.502 278.883 476.834C279.356 477.161 279.944 477.324 280.644 477.324ZM289.207 479.114C288.856 479.114 288.556 478.988 288.305 478.737C288.054 478.486 287.928 478.186 287.928 477.835C287.928 477.485 288.054 477.184 288.305 476.933C288.556 476.682 288.856 476.557 289.207 476.557C289.557 476.557 289.858 476.682 290.109 476.933C290.36 477.184 290.485 477.485 290.485 477.835C290.485 478.067 290.426 478.28 290.308 478.474C290.194 478.669 290.04 478.825 289.846 478.943C289.657 479.057 289.444 479.114 289.207 479.114ZM294.215 479.114C293.864 479.114 293.564 478.988 293.313 478.737C293.062 478.486 292.936 478.186 292.936 477.835C292.936 477.485 293.062 477.184 293.313 476.933C293.564 476.682 293.864 476.557 294.215 476.557C294.565 476.557 294.866 476.682 295.117 476.933C295.368 477.184 295.493 477.485 295.493 477.835C295.493 478.067 295.434 478.28 295.316 478.474C295.202 478.669 295.048 478.825 294.854 478.943C294.664 479.057 294.451 479.114 294.215 479.114ZM299.222 479.114C298.872 479.114 298.571 478.988 298.32 478.737C298.07 478.486 297.944 478.186 297.944 477.835C297.944 477.485 298.07 477.184 298.32 476.933C298.571 476.682 298.872 476.557 299.222 476.557C299.573 476.557 299.874 476.682 300.124 476.933C300.375 477.184 300.501 477.485 300.501 477.835C300.501 478.067 300.442 478.28 300.323 478.474C300.21 478.669 300.056 478.825 299.862 478.943C299.672 479.057 299.459 479.114 299.222 479.114Z" fill="#222222"/>
<g clip-path="url(#clip0_1056_17812)">
<path opacity="0.35" d="M375.5 19.9997C375.5 18.8031 376.47 17.833 377.667 17.833H394.333C395.53 17.833 396.5 18.8031 396.5 19.9997V25.9997C396.5 27.1963 395.53 28.1663 394.333 28.1663H377.667C376.47 28.1663 375.5 27.1963 375.5 25.9997V19.9997Z" stroke="black"/>
<path opacity="0.4" d="M398 20.9995V24.9995C398.805 24.6607 399.328 23.8726 399.328 22.9995C399.328 22.1264 398.805 21.3383 398 20.9995Z" fill="black"/>
<path d="M377 20.433C377 19.8255 377.492 19.333 378.1 19.333H393.9C394.508 19.333 395 19.8255 395 20.433V25.5663C395 26.1739 394.508 26.6663 393.9 26.6663H378.1C377.492 26.6663 377 26.1739 377 25.5663V20.433Z" fill="black"/>
<path fill-rule="evenodd" clip-rule="evenodd" d="M362.33 19.6079C364.546 19.608 366.678 20.4594 368.283 21.9862C368.404 22.1041 368.598 22.1026 368.717 21.9829L369.873 20.8162C369.933 20.7555 369.967 20.6733 369.966 20.5877C369.966 20.5021 369.931 20.4202 369.87 20.3602C365.655 16.3207 359.005 16.3207 354.79 20.3602C354.729 20.4202 354.694 20.502 354.694 20.5876C354.693 20.6732 354.727 20.7555 354.787 20.8162L355.943 21.9829C356.062 22.1028 356.256 22.1043 356.377 21.9862C357.983 20.4593 360.114 19.6079 362.33 19.6079ZM362.33 23.4036C363.548 23.4035 364.722 23.856 365.624 24.6732C365.747 24.7892 365.939 24.7867 366.058 24.6676L367.212 23.5009C367.273 23.4397 367.307 23.3567 367.306 23.2704C367.305 23.1842 367.27 23.1018 367.208 23.0419C364.46 20.4855 360.204 20.4855 357.455 23.0419C357.393 23.1018 357.358 23.1842 357.357 23.2705C357.356 23.3568 357.39 23.4398 357.451 23.5009L358.605 24.6676C358.724 24.7867 358.917 24.7892 359.039 24.6732C359.941 23.8566 361.114 23.4041 362.33 23.4036ZM364.643 25.9574C364.645 26.0439 364.611 26.1273 364.549 26.1879L362.552 28.2036C362.494 28.2628 362.414 28.2961 362.33 28.2961C362.247 28.2961 362.167 28.2628 362.109 28.2036L360.111 26.1879C360.049 26.1272 360.015 26.0438 360.017 25.9573C360.019 25.8708 360.057 25.7889 360.121 25.7309C361.396 24.652 363.265 24.652 364.54 25.7309C364.604 25.7889 364.642 25.8709 364.643 25.9574Z" fill="black"/>
<path fill-rule="evenodd" clip-rule="evenodd" d="M348.667 17.6665H347.667C347.115 17.6665 346.667 18.1142 346.667 18.6665V27.3332C346.667 27.8855 347.115 28.3332 347.667 28.3332H348.667C349.219 28.3332 349.667 27.8855 349.667 27.3332V18.6665C349.667 18.1142 349.219 17.6665 348.667 17.6665ZM343 19.9998H344C344.552 19.9998 345 20.4476 345 20.9998V27.3332C345 27.8855 344.552 28.3332 344 28.3332H343C342.448 28.3332 342 27.8855 342 27.3332V20.9998C342 20.4476 342.448 19.9998 343 19.9998ZM339.333 22.3332H338.333C337.781 22.3332 337.333 22.7809 337.333 23.3332V27.3332C337.333 27.8855 337.781 28.3332 338.333 28.3332H339.333C339.886 28.3332 340.333 27.8855 340.333 27.3332V23.3332C340.333 22.7809 339.886 22.3332 339.333 22.3332ZM334.667 24.3332H333.667C333.115 24.3332 332.667 24.7809 332.667 25.3332V27.3332C332.667 27.8855 333.115 28.3332 333.667 28.3332H334.667C335.219 28.3332 335.667 27.8855 335.667 27.3332V25.3332C335.667 24.7809 335.219 24.3332 334.667 24.3332Z" fill="black"/>
<path d="M40.5147 17.1675C38.2222 17.1675 36.5889 18.7349 36.5889 20.8809V20.8955C36.5889 22.9023 38.0098 24.3818 40.0386 24.3818C41.4888 24.3818 42.4117 23.6421 42.7998 22.8071H42.9463C42.9463 22.8877 42.939 22.9683 42.939 23.0488C42.8584 25.0703 42.148 26.7109 40.4707 26.7109C39.5406 26.7109 38.8887 26.2275 38.6104 25.4878L38.5884 25.4146H36.7281L36.7427 25.4951C37.0796 27.1138 38.5298 28.2637 40.4707 28.2637C43.1294 28.2637 44.7334 26.1543 44.7334 22.5947V22.5801C44.7334 18.7715 42.7705 17.1675 40.5147 17.1675ZM40.5074 22.9316C39.3062 22.9316 38.4346 22.0527 38.4346 20.8296V20.8149C38.4346 19.6357 39.3648 18.7056 40.5293 18.7056C41.7012 18.7056 42.6167 19.6504 42.6167 20.8589V20.8735C42.6167 22.0674 41.7012 22.9316 40.5074 22.9316ZM47.5586 21.1519C48.2325 21.1519 48.7232 20.6392 48.7232 19.9946C48.7232 19.3428 48.2325 18.8374 47.5586 18.8374C46.8921 18.8374 46.3941 19.3428 46.3941 19.9946C46.3941 20.6392 46.8921 21.1519 47.5586 21.1519ZM47.5586 26.5864C48.2325 26.5864 48.7232 26.0811 48.7232 25.4292C48.7232 24.7773 48.2325 24.272 47.5586 24.272C46.8921 24.272 46.3941 24.7773 46.3941 25.4292C46.3941 26.0811 46.8921 26.5864 47.5586 26.5864ZM55.5108 28H57.3199V25.9712H58.7408V24.4111H57.3199V17.4312H54.6465C53.211 19.6138 51.7095 22.0454 50.3399 24.4258V25.9712H55.5108V28ZM52.0977 24.4551V24.3452C53.1231 22.5508 54.3462 20.5952 55.4302 18.9399H55.5401V24.4551H52.0977ZM62.6206 28H64.5103V17.4312H62.628L59.8667 19.3721V21.1519L62.4961 19.2915H62.6206V28Z" fill="black"/>
</g>
<rect x="88" y="378" width="67" height="58" rx="29" fill="#2C8E4E"/>
<path d="M161.016 420V393.818H170.834C172.846 393.818 174.533 394.168 175.897 394.866C177.269 395.565 178.304 396.545 179.003 397.807C179.711 399.06 180.064 400.521 180.064 402.192C180.064 403.871 179.706 405.328 178.99 406.564C178.283 407.791 177.239 408.741 175.858 409.415C174.478 410.08 172.782 410.412 170.77 410.412H163.777V406.474H170.131C171.307 406.474 172.27 406.312 173.02 405.989C173.77 405.656 174.324 405.175 174.682 404.544C175.049 403.905 175.232 403.121 175.232 402.192C175.232 401.263 175.049 400.47 174.682 399.814C174.316 399.149 173.757 398.646 173.007 398.305C172.257 397.956 171.29 397.781 170.105 397.781H165.759V420H161.016ZM174.542 408.136L181.023 420H175.73L169.364 408.136H174.542ZM187.292 420H182.23L191.447 393.818H197.302L206.532 420H201.47L194.477 399.188H194.272L187.292 420ZM187.458 409.734H201.265V413.544H187.458V409.734ZM209.481 420V393.818H219.504C221.396 393.818 222.968 394.116 224.221 394.713C225.482 395.301 226.424 396.107 227.046 397.129C227.677 398.152 227.992 399.311 227.992 400.607C227.992 401.672 227.788 402.584 227.379 403.342C226.969 404.092 226.42 404.702 225.729 405.17C225.039 405.639 224.268 405.976 223.415 406.18V406.436C224.344 406.487 225.235 406.773 226.087 407.293C226.948 407.804 227.651 408.528 228.197 409.466C228.742 410.403 229.015 411.537 229.015 412.866C229.015 414.222 228.687 415.44 228.031 416.523C227.374 417.597 226.386 418.445 225.065 419.067C223.744 419.689 222.082 420 220.079 420H209.481ZM214.224 416.037H219.325C221.046 416.037 222.286 415.709 223.045 415.053C223.812 414.388 224.195 413.536 224.195 412.496C224.195 411.72 224.004 411.021 223.62 410.399C223.237 409.768 222.691 409.274 221.984 408.916C221.276 408.55 220.433 408.366 219.452 408.366H214.224V416.037ZM214.224 404.953H218.915C219.734 404.953 220.471 404.804 221.127 404.506C221.783 404.199 222.299 403.768 222.674 403.214C223.058 402.652 223.249 401.987 223.249 401.22C223.249 400.206 222.891 399.371 222.175 398.714C221.468 398.058 220.415 397.73 219.018 397.73H214.224V404.953ZM232.641 420V393.818H242.664C244.556 393.818 246.128 394.116 247.381 394.713C248.642 395.301 249.584 396.107 250.206 397.129C250.837 398.152 251.152 399.311 251.152 400.607C251.152 401.672 250.948 402.584 250.539 403.342C250.13 404.092 249.58 404.702 248.89 405.17C248.199 405.639 247.428 405.976 246.576 406.18V406.436C247.505 406.487 248.395 406.773 249.248 407.293C250.108 407.804 250.811 408.528 251.357 409.466C251.902 410.403 252.175 411.537 252.175 412.866C252.175 414.222 251.847 415.44 251.191 416.523C250.534 417.597 249.546 418.445 248.225 419.067C246.904 419.689 245.242 420 243.239 420H232.641ZM237.384 416.037H242.485C244.206 416.037 245.446 415.709 246.205 415.053C246.972 414.388 247.355 413.536 247.355 412.496C247.355 411.72 247.164 411.021 246.78 410.399C246.397 409.768 245.851 409.274 245.144 408.916C244.436 408.55 243.593 408.366 242.613 408.366H237.384V416.037ZM237.384 404.953H242.076C242.894 404.953 243.631 404.804 244.287 404.506C244.944 404.199 245.459 403.768 245.834 403.214C246.218 402.652 246.409 401.987 246.409 401.22C246.409 400.206 246.051 399.371 245.336 398.714C244.628 398.058 243.576 397.73 242.178 397.73H237.384V404.953ZM254.011 393.818H259.368L265.773 405.401H266.028L272.433 393.818H277.79L268.266 410.233V420H263.536V410.233L254.011 393.818Z" fill="#222222"/>
<path d="M130.325 400.249C130.029 399.29 129.621 398.432 129.1 397.674C128.591 396.905 127.976 396.248 127.254 395.703C126.543 395.159 125.727 394.75 124.803 394.478C123.88 394.194 122.874 394.052 121.785 394.052C119.832 394.052 118.092 394.543 116.565 395.526C115.038 396.508 113.836 397.952 112.96 399.858C112.096 401.752 111.664 404.06 111.664 406.783C111.664 409.529 112.096 411.855 112.96 413.761C113.824 415.666 115.026 417.116 116.565 418.111C118.104 419.093 119.891 419.585 121.927 419.585C123.774 419.585 125.372 419.229 126.721 418.519C128.082 417.809 129.13 416.803 129.864 415.501C130.598 414.187 130.965 412.648 130.965 410.884L132.456 411.115H122.584V405.966H137.339V410.334C137.339 413.447 136.676 416.14 135.35 418.413C134.024 420.685 132.202 422.437 129.881 423.668C127.561 424.888 124.898 425.497 121.891 425.497C118.542 425.497 115.6 424.746 113.067 423.242C110.546 421.727 108.575 419.579 107.154 416.797C105.746 414.003 105.041 410.689 105.041 406.854C105.041 403.918 105.456 401.296 106.284 398.988C107.125 396.68 108.296 394.721 109.8 393.111C111.303 391.489 113.067 390.258 115.091 389.418C117.115 388.565 119.317 388.139 121.696 388.139C123.708 388.139 125.585 388.435 127.325 389.027C129.065 389.607 130.609 390.436 131.959 391.513C133.32 392.59 134.439 393.868 135.315 395.348C136.191 396.828 136.765 398.461 137.037 400.249H130.325Z" fill="white"/>
<circle cx="149" cy="374" r="9" fill="#2C8E4E"/>
<circle cx="149" cy="439" r="9" fill="#2C8E4E"/>
<defs>
<clipPath id="clip0_1056_17812">
<rect width="414" height="44" fill="white"/>
</clipPath>
</defs>
</svg>
